<?xml version="1.0" encoding="UTF-8"?>
<svg id="Layer_1" data-name="Layer 1" xmlns="http://www.w3.org/2000/svg" viewBox="0 0 3000 3000">
  <defs>
    <style>
      .cls-1 {
        fill: #ebe4df;
      }
    </style>
  </defs>
  <path class="cls-1" d="m1922.26,66.33c109.02,121.85,246.27,360.42,256.53,416.86s69.26,173.16,92.35,219.33c23.09,46.18,35.91,174.44,25.65,206.51-10.26,32.07-109.02,198.81-57.72,309.12,51.31,110.31,87.22,198.81,137.24,269.35,50.02,70.55,85.94,112.87,79.52,156.48-6.41,43.61-12.83,94.92-92.35,116.72-79.52,21.8-119.29,8.98-121.85,34.63-2.57,25.65-5.13,85.94,26.94,121.85s-44.89,115.44-69.26,132.11c0,0,30.78,29.5,37.2,64.13s-15.39,78.24-34.63,96.2-43.61,33.35-38.48,65.41,57.72,150.07-2.57,236.01c-60.28,85.94-107.74,160.33-324.51,125.7-216.77-34.63-516.9-107.74-516.9-107.74,0,0-46.18,88.5-60.28,153.92-14.11,65.41-29.5,284.75-29.5,284.75h-93.63V67.62l786.26-1.28Z"/>
</svg>